<svg width="44" height="44" viewBox="0 0 44 44" fill="none" xmlns="http://www.w3.org/2000/svg">
<rect x="0.5" y="0.5" width="43" height="43" rx="21.5" fill="white" stroke="#333333"/>
<g clip-path="url(#clip0_6566_703)">
<path d="M31 17.0396C30.4111 17.3006 29.7792 17.4776 29.1153 17.5566C29.7932 17.1506 30.3121 16.5068 30.558 15.7419C29.9222 16.1178 29.2203 16.3908 28.4724 16.5388C27.8735 15.8999 27.0217 15.502 26.0769 15.502C24.2642 15.502 22.7945 16.9717 22.7945 18.7833C22.7945 19.0403 22.8235 19.2912 22.8795 19.5312C20.152 19.3942 17.7335 18.0875 16.1148 16.1018C15.8318 16.5857 15.6708 17.1496 15.6708 17.7515C15.6708 18.8903 16.2507 19.8951 17.1306 20.483C16.5927 20.465 16.0868 20.317 15.6439 20.0711V20.1121C15.6439 21.7018 16.7757 23.0285 18.2764 23.3305C18.0014 23.4044 17.7115 23.4454 17.4115 23.4454C17.1996 23.4454 16.9946 23.4244 16.7936 23.3844C17.2116 24.6892 18.4233 25.638 19.8591 25.664C18.7363 26.5439 17.3205 27.0668 15.7828 27.0668C15.5179 27.0668 15.2569 27.0508 15 27.0218C16.4527 27.9546 18.1774 28.4985 20.0311 28.4985C26.0689 28.4985 29.3693 23.4974 29.3693 19.1603L29.3583 18.7354C30.0032 18.2754 30.561 17.6975 31 17.0396Z" fill="black"/>
</g>
<defs>
<clipPath id="clip0_6566_703">
<rect width="16" height="16" fill="white" transform="translate(15 14)"/>
</clipPath>
</defs>
</svg>
