<svg width="44" height="44" viewBox="0 0 44 44" fill="none" xmlns="http://www.w3.org/2000/svg">
<rect x="0.5" y="0.5" width="43" height="43" rx="21.5" fill="white" stroke="#333333"/>
<path d="M16.0001 20.0981C16.0001 19.3631 16.1277 18.6687 16.3793 18.0207C16.6197 17.3912 16.9768 16.8135 17.4317 16.3183C17.8856 15.8296 18.405 15.407 18.975 15.0628C19.5598 14.7068 20.1928 14.4382 20.8544 14.2655C21.5239 14.0885 22.2133 13.9993 22.9056 14C23.9748 14 24.9699 14.2277 25.8927 14.6811C26.8035 15.1263 27.5787 15.8095 28.1373 16.6594C28.7137 17.5238 29 18.5015 29 19.5917C29 20.2455 28.9362 20.885 28.8057 21.5104C28.6776 22.1355 28.4739 22.7424 28.1992 23.3176C27.9374 23.8745 27.5952 24.3893 27.1835 24.8452C26.7698 25.2939 26.2687 25.6522 25.7115 25.8976C25.1066 26.1644 24.4522 26.2987 23.7918 26.2916C23.3327 26.2916 22.8746 26.1829 22.4221 25.9647C21.9696 25.7474 21.6448 25.4489 21.4496 25.0663C21.381 25.3318 21.2872 25.7153 21.1623 26.2169C21.0421 26.7176 20.9614 27.0407 20.9257 27.1872C20.8882 27.3326 20.8187 27.5754 20.7173 27.9118C20.6486 28.1605 20.5604 28.4035 20.4535 28.6382L20.1306 29.275C19.9909 29.5482 19.8348 29.8126 19.6631 30.0666C19.4932 30.3141 19.2829 30.6098 19.0323 30.9499L18.8924 31L18.7994 30.898C18.699 29.8276 18.6474 29.1871 18.6474 28.9755C18.6474 28.3492 18.7215 27.6463 18.868 26.866C19.0116 26.0866 19.2388 25.1069 19.5439 23.9289C19.849 22.7518 20.0236 22.0593 20.0705 21.8543C19.8555 21.4131 19.7466 20.8368 19.7466 20.1283C19.7466 19.5624 19.9222 19.0325 20.2742 18.5337C20.6272 18.0367 21.0731 17.7883 21.6138 17.7883C22.0278 17.7883 22.3489 17.9262 22.5789 18.203C22.8098 18.4789 22.9225 18.8265 22.9225 19.2507C22.9225 19.7004 22.7741 20.3513 22.4756 21.2024C22.1771 22.0546 22.0288 22.6904 22.0288 23.1126C22.0288 23.5406 22.1809 23.8986 22.485 24.1792C22.7852 24.4599 23.1821 24.6121 23.5918 24.6034C23.9636 24.6034 24.3081 24.5184 24.6282 24.3474C24.9433 24.1814 25.2161 23.9444 25.4252 23.6549C25.8807 23.026 26.2054 22.3111 26.3799 21.5529C26.47 21.1543 26.5395 20.7754 26.5827 20.4193C26.6287 20.0612 26.6484 19.723 26.6484 19.4018C26.6484 18.2238 26.2767 17.3055 25.5379 16.648C24.7953 15.9905 23.8284 15.6636 22.639 15.6636C21.2862 15.6636 20.155 16.1039 19.2491 16.9872C18.3423 17.8676 17.886 18.9871 17.886 20.3447C17.886 20.6441 17.9311 20.9332 18.0165 21.2128C18.1001 21.4915 18.1911 21.7135 18.2897 21.8779C18.3873 22.0395 18.4793 22.1972 18.5629 22.3427C18.6474 22.4882 18.6915 22.5921 18.6915 22.6545C18.6915 22.8453 18.6417 23.0938 18.5413 23.4008C18.4371 23.7078 18.3141 23.8609 18.1658 23.8609C18.1517 23.8609 18.0935 23.8505 17.9921 23.8287C17.641 23.7232 17.3239 23.526 17.0731 23.2572C16.8069 22.9785 16.5968 22.6507 16.4544 22.2917C16.3125 21.934 16.2019 21.5645 16.124 21.1873C16.0398 20.8305 15.9982 20.4648 16.0001 20.0981Z" fill="black"/>
</svg>
