<svg width="20" height="20" viewBox="0 0 20 20" fill="none" xmlns="http://www.w3.org/2000/svg">
<path fill-rule="evenodd" clip-rule="evenodd" d="M0.833496 4.16667C0.833496 3.24619 1.57969 2.5 2.50016 2.5H17.5002C18.4207 2.5 19.1668 3.2462 19.1668 4.16667V15.8333C19.1668 16.7538 18.4206 17.5 17.5002 17.5H2.50016C1.5797 17.5 0.833496 16.7538 0.833496 15.8333V4.16667ZM2.50016 7.5V15.8333H17.5002V7.5H2.50016ZM17.5002 5.83333H2.50016V4.16667H17.5002V5.83333ZM10.4168 13.3333C10.4168 12.8731 10.7899 12.5 11.2502 12.5H15.0002C15.4604 12.5 15.8335 12.8731 15.8335 13.3333C15.8335 13.7936 15.4604 14.1667 15.0002 14.1667H11.2502C10.7899 14.1667 10.4168 13.7936 10.4168 13.3333Z" fill="black" stroke="white" stroke-width="0.3" stroke-linecap="round" stroke-linejoin="round"/>
</svg>
