<svg width="20" height="20" viewBox="0 0 20 20" fill="none" xmlns="http://www.w3.org/2000/svg">
<path fill-rule="evenodd" clip-rule="evenodd" d="M1.6665 9.16634C1.6665 4.56398 5.39748 0.833008 9.99984 0.833008C14.6022 0.833008 18.3332 4.56398 18.3332 9.16634V18.3329L17.4998 18.333L16.6665 18.3329V9.16634C16.6665 5.48445 13.6817 2.49967 9.99984 2.49967C6.31795 2.49967 3.33317 5.48445 3.33317 9.16634V18.3327L2.49984 18.333L1.6665 18.3329V9.16634ZM2.49984 18.333L1.6665 18.3329C1.6665 18.7932 2.0396 19.1663 2.49984 19.1663C2.96007 19.1663 3.33317 18.7929 3.33317 18.3327L2.49984 18.333ZM4.99984 9.58301C4.99984 9.12277 5.37293 8.74967 5.83317 8.74967H14.1665C14.6267 8.74967 14.9998 9.12277 14.9998 9.58301C14.9998 11.9855 14.5147 14.2018 13.6915 15.8482C12.8932 17.4449 11.6361 18.7497 9.99984 18.7497C8.36356 18.7497 7.10652 17.4449 6.30821 15.8482C5.48497 14.2018 4.99984 11.9855 4.99984 9.58301ZM6.68814 10.4163C6.78521 12.2736 7.20194 13.9089 7.79892 15.1029C8.50865 16.5223 9.33495 17.083 9.99984 17.083C10.6647 17.083 11.491 16.5223 12.2008 15.1029C12.7977 13.9089 13.2145 12.2736 13.3115 10.4163H6.68814ZM17.4998 19.1663C17.0396 19.1663 16.6665 18.7932 16.6665 18.3329L17.4998 18.333L18.3332 18.3329C18.3332 18.7932 17.9601 19.1663 17.4998 19.1663Z" fill="black"/>
<path d="M18.3332 18.3329L17.4998 18.333L16.6665 18.3329M18.3332 18.3329C18.3332 18.7932 17.9601 19.1663 17.4998 19.1663C17.0396 19.1663 16.6665 18.7932 16.6665 18.3329M18.3332 18.3329V9.16634C18.3332 4.56398 14.6022 0.833008 9.99984 0.833008C5.39748 0.833008 1.6665 4.56398 1.6665 9.16634V18.3329M16.6665 18.3329V9.16634C16.6665 5.48445 13.6817 2.49967 9.99984 2.49967C6.31795 2.49967 3.33317 5.48445 3.33317 9.16634V18.3327M3.33317 18.3327L2.49984 18.333L1.6665 18.3329M3.33317 18.3327C3.33317 18.793 2.96007 19.1663 2.49984 19.1663C2.0396 19.1663 1.6665 18.7932 1.6665 18.3329M5.83317 8.74967C5.37293 8.74967 4.99984 9.12277 4.99984 9.58301C4.99984 11.9855 5.48497 14.2018 6.30821 15.8482C7.10652 17.4449 8.36356 18.7497 9.99984 18.7497C11.6361 18.7497 12.8932 17.4449 13.6915 15.8482C14.5147 14.2018 14.9998 11.9855 14.9998 9.58301C14.9998 9.12277 14.6267 8.74967 14.1665 8.74967H5.83317ZM7.79892 15.1029C7.20194 13.9089 6.78521 12.2736 6.68814 10.4163H13.3115C13.2145 12.2736 12.7977 13.9089 12.2008 15.1029C11.491 16.5223 10.6647 17.083 9.99984 17.083C9.33495 17.083 8.50865 16.5223 7.79892 15.1029Z" stroke="white" stroke-width="0.3" stroke-linecap="round" stroke-linejoin="round"/>
</svg>
