<svg width="30" height="30" viewBox="0 0 30 30" fill="none" xmlns="http://www.w3.org/2000/svg">
<path d="M4.91895 1V29H25.0815V1H4.91895ZM23.4409 2.64063V13.4679H6.55958V2.64063H23.4409ZM14.1799 15.1085V18.0983H11.1901V15.1085H14.1799ZM9.54946 18.0984H6.55958V15.1086H9.54946V18.0984ZM9.54946 19.739V22.7289H6.55958V19.739H9.54946ZM11.1901 19.739H14.1799V22.7289H11.1901V19.739ZM14.1799 24.3695V27.3594H11.1901V24.3695H14.1799ZM15.8206 24.3695H18.8104V27.3594H15.8206V24.3695ZM18.8104 22.7289H15.8206V19.739H18.8104V22.7289ZM15.8206 18.0984V15.1086H18.8104V18.0984H15.8206ZM20.4511 15.1085H23.4409V18.0983H20.4511V15.1085ZM6.55958 24.3695H9.54946V27.3594H6.55958V24.3695ZM20.4511 27.3594V19.739H23.4409V27.3594H20.4511Z" fill="#333333" fill-opacity="0.6" stroke="white" stroke-width="0.4"/>
<path d="M21.7892 4.40137H8.25977V11.9904H21.7892V4.40137ZM20.1486 10.3498H9.90039V6.04199H20.1486V10.3498Z" fill="#333333" fill-opacity="0.6" stroke="white" stroke-width="0.4"/>
<path d="M17.0864 7.37598H18.7271V9.01671H17.0864V7.37598Z" fill="#333333" fill-opacity="0.6" stroke="white" stroke-width="0.4"/>
<path d="M14.1797 7.37598H15.8203V9.01671H14.1797V7.37598Z" fill="#333333" fill-opacity="0.6" stroke="white" stroke-width="0.4"/>
<path d="M11.2739 7.37598H12.9146V9.01671H11.2739V7.37598Z" fill="#333333" fill-opacity="0.6" stroke="white" stroke-width="0.4"/>
</svg>
