<svg width="19" height="20" viewBox="0 0 19 20" fill="none" xmlns="http://www.w3.org/2000/svg">
<path d="M16.6329 1.66699C17.4069 1.66699 18.0547 2.30353 18.1472 3.18848L18.1536 3.33366V14.167C18.1536 15.0153 17.5728 15.7253 16.7654 15.8267L16.6329 15.8337H14.352V17.5003C14.352 18.0872 13.8182 18.4797 13.3321 18.2838L13.2517 18.2457L12.0711 17.5987L10.8905 18.2457C10.4116 18.5081 9.85252 18.1603 9.795 17.5963L9.79016 17.5003V15.8337H2.94738C2.21415 15.8337 1.59416 15.2624 1.45229 14.4498L1.43313 14.3122L1.42676 14.167V3.33366C1.42676 2.48537 2.00752 1.77536 2.81492 1.67398L2.94738 1.66699H16.6329ZM12.8314 14.4928L12.6538 14.5318C12.5313 14.5545 12.4041 14.57 12.2723 14.5778L12.2382 14.5787C12.1829 14.582 12.1272 14.5837 12.0711 14.5837L11.9193 14.5796C11.9178 14.5795 11.9162 14.5794 11.9147 14.5793C11.701 14.5705 11.4999 14.5413 11.3109 14.4945L11.3108 16.1512L11.7311 15.9216C11.9451 15.8043 12.1971 15.8043 12.4111 15.9216L12.8314 16.152V14.4928ZM2.99116 3.33228L2.94738 3.33366L2.94611 14.119L2.9474 14.167L9.79016 14.167L9.78943 13.4543C9.31668 12.8668 9.02985 12.0953 9.02985 11.2503C9.02985 9.40938 10.3915 7.91699 12.0711 7.91699C13.7507 7.91699 15.1123 9.40938 15.1123 11.2503C15.1123 12.0953 14.8255 12.8668 14.3527 13.4543L14.352 14.167L16.5892 14.1684L16.6329 14.1662L16.6342 3.38165L16.6322 3.33366L2.99116 3.33228ZM12.0711 9.58366C11.2313 9.58366 10.5505 10.3299 10.5505 11.2503C10.5505 12.1708 11.2313 12.917 12.0711 12.917L12.0125 12.9145L12.0711 12.917C12.0914 12.917 12.1113 12.9167 12.131 12.9162C12.5002 12.9003 12.8364 12.7398 13.0928 12.4847C13.0944 12.4814 13.0964 12.4794 13.0985 12.4775L13.0928 12.4847C13.3993 12.1798 13.5917 11.7397 13.5917 11.2503C13.5917 10.3299 12.9109 9.58366 12.0711 9.58366ZM6.74892 10.8337C7.16883 10.8337 7.50923 11.2068 7.50923 11.667C7.50923 12.0944 7.21572 12.4466 6.83759 12.4947L6.74892 12.5003H5.2283C4.8084 12.5003 4.46799 12.1272 4.46799 11.667C4.46799 11.2396 4.7615 10.8874 5.13964 10.8393L5.2283 10.8337H6.74892ZM7.50923 7.91699C7.92914 7.91699 8.26954 8.29009 8.26954 8.75033C8.26954 9.17769 7.97603 9.52991 7.5979 9.57805L7.50923 9.58366H5.2283C4.8084 9.58366 4.46799 9.21056 4.46799 8.75033C4.46799 8.32296 4.7615 7.97074 5.13964 7.9226L5.2283 7.91699H7.50923ZM14.352 5.00033C14.7719 5.00033 15.1123 5.37342 15.1123 5.83366C15.1123 6.26102 14.8188 6.61325 14.4407 6.66139L14.352 6.66699H5.2283C4.8084 6.66699 4.46799 6.2939 4.46799 5.83366C4.46799 5.4063 4.7615 5.05407 5.13964 5.00593L5.2283 5.00033H14.352Z" fill="black" stroke="black" stroke-width="0.4"/>
</svg>
