<svg width="20" height="20" viewBox="0 0 20 20" fill="none" xmlns="http://www.w3.org/2000/svg">
<path fill-rule="evenodd" clip-rule="evenodd" d="M17.8581 1.74716C18.2736 1.94503 18.4501 2.44229 18.2522 2.85782L14.0856 11.6078C13.9725 11.8452 13.754 12.0154 13.4961 12.0668C13.2382 12.1182 12.9712 12.0449 12.7757 11.869L9.42245 8.85103L6.57853 14.5389C6.3727 14.9505 5.87214 15.1174 5.46049 14.9116C5.04884 14.7057 4.88199 14.2052 5.08781 13.7935L8.42115 7.12686C8.53749 6.89418 8.75583 6.72917 9.01144 6.68076C9.26705 6.63236 9.5306 6.7061 9.72397 6.88013L13.0608 9.88326L16.7475 2.14127C16.9453 1.72574 17.4426 1.54929 17.8581 1.74716ZM2.49984 1.66621C2.96007 1.66621 3.33317 2.03931 3.33317 2.49954V16.6662H17.4998C17.9601 16.6662 18.3332 17.0393 18.3332 17.4995C18.3332 17.9598 17.9601 18.3329 17.4998 18.3329H2.49984C2.0396 18.3329 1.6665 17.9598 1.6665 17.4995V2.49954C1.6665 2.03931 2.0396 1.66621 2.49984 1.66621Z" fill="black" stroke="white" stroke-width="0.3" stroke-linecap="round" stroke-linejoin="round"/>
</svg>
