<svg width="20" height="20" viewBox="0 0 20 20" fill="none" xmlns="http://www.w3.org/2000/svg">
<path fill-rule="evenodd" clip-rule="evenodd" d="M9.47961 1.8496C9.78396 1.60612 10.2164 1.60612 10.5208 1.8496L16.7706 6.84946C16.7705 6.84942 16.7707 6.84951 16.7706 6.84946L18.8541 8.51627C19.2135 8.80378 19.2718 9.32819 18.9842 9.68757C18.6967 10.047 18.1723 10.1052 17.8129 9.81772L17.0835 9.23418V17.5003C17.0835 17.9606 16.7104 18.3337 16.2502 18.3337H3.75019C3.28996 18.3337 2.91686 17.9606 2.91686 17.5003V9.23418L2.18744 9.81772C1.82805 10.1052 1.30364 10.047 1.01614 9.68757C0.728628 9.32819 0.786896 8.80378 1.14628 8.51627L3.22961 6.8496C3.22953 6.84967 3.2297 6.84954 3.22961 6.8496L9.47961 1.8496ZM4.58353 7.90085L10.0002 3.56751L15.4169 7.90085V16.667H12.9169V12.0837C12.9169 11.6234 12.5438 11.2503 12.0835 11.2503H7.91686C7.45662 11.2503 7.08353 11.6234 7.08353 12.0837V16.667H4.58353V7.90085ZM8.75019 16.667H11.2502V12.917H8.75019V16.667Z" fill="black"/>
<path d="M16.7706 6.84946L10.5208 1.8496C10.2164 1.60612 9.78396 1.60612 9.47961 1.8496L3.22961 6.8496M16.7706 6.84946C16.7705 6.84942 16.7707 6.84951 16.7706 6.84946ZM16.7706 6.84946L18.8541 8.51627C19.2135 8.80378 19.2718 9.32819 18.9842 9.68757C18.6967 10.047 18.1723 10.1052 17.8129 9.81772L17.0835 9.23418V17.5003C17.0835 17.9606 16.7104 18.3337 16.2502 18.3337H3.75019C3.28996 18.3337 2.91686 17.9606 2.91686 17.5003V9.23418L2.18744 9.81772C1.82805 10.1052 1.30364 10.047 1.01614 9.68757C0.728628 9.32819 0.786896 8.80378 1.14628 8.51627L3.22961 6.8496M3.22961 6.8496C3.22953 6.84967 3.2297 6.84954 3.22961 6.8496ZM4.58353 7.90085L10.0002 3.56751L15.4169 7.90085V16.667H12.9169V12.0837C12.9169 11.6234 12.5438 11.2503 12.0835 11.2503H7.91686C7.45662 11.2503 7.08353 11.6234 7.08353 12.0837V16.667H4.58353V7.90085ZM11.2502 16.667H8.75019V12.917H11.2502V16.667Z" stroke="white" stroke-width="0.3" stroke-linecap="round"/>
</svg>
