<svg width="31" height="30" viewBox="0 0 31 30" fill="none" xmlns="http://www.w3.org/2000/svg">
<g clip-path="url(#clip0_6566_107)">
<path d="M27.8757 12.2425V7.4335H29.3125V5.78555H27.8757V0.976562H21.0729V5.78555H9.42708V0.976562H2.62435V5.78555H1.1875V7.4335H2.62435V12.2425H9.42708V7.4335H14.4924V14.1758H13.1012V15.8238H14.4924V22.5661H9.42708V17.7571H2.62435V22.5661H1.1875V24.214H2.62435V29.023H9.42708V24.214H21.0729V29.023H27.8757V24.214H29.3125V22.5661H27.8757V17.7571H21.0729V22.5661H16.1404V15.8238H17.6328V14.1758H16.1404V7.4335H21.0729V12.2425H27.8757ZM7.77913 10.5945H4.2723V2.62451H7.77913V10.5945ZM7.77913 27.3751H4.2723V19.405H7.77913V27.3751ZM22.7209 19.405H26.2277V27.3751H22.7209V19.405ZM22.7209 2.62451H26.2277V10.5945H22.7209V2.62451Z" fill="black" stroke="white" stroke-width="0.4"/>
</g>
<defs>
<clipPath id="clip0_6566_107">
<rect width="30" height="30" fill="white" transform="translate(0.25)"/>
</clipPath>
</defs>
</svg>
