<svg width="31" height="30" viewBox="0 0 31 30" fill="none" xmlns="http://www.w3.org/2000/svg">
<g clip-path="url(#clip0_6566_165)">
<path d="M29.6733 1.77501L28.4784 0.580078L26.0841 2.97433C24.9108 2.62841 23.6983 2.45316 22.4763 2.45316C18.8422 2.45316 15.3698 4.00787 12.949 6.71909L9.73151 10.3299L4.8615 10.074L0.846241 14.0893L3.94552 17.1886L2.34006 21.2601L3.53076 22.4508C2.8997 22.6006 2.3204 22.9217 1.85021 23.3919C0.578899 24.6632 0.825568 27.958 0.887925 28.6056L0.954733 29.2989L1.64804 29.3657C1.67119 29.368 2.22328 29.4204 2.96081 29.4204C4.87463 29.4204 6.18712 29.0783 6.86178 28.4035C7.34205 27.9232 7.65496 27.3382 7.80131 26.7214L8.99342 27.9135L13.0648 26.3081L16.1641 29.4074L20.1793 25.3922L19.9235 20.5221L23.5348 17.3041C27.2137 14.0194 28.6691 8.88729 27.279 4.16943L29.6733 1.77501ZM25.6463 4.60711C26.168 6.3534 26.2392 8.16632 25.9026 9.89323L20.358 4.34867C21.0509 4.21348 21.7599 4.14312 22.4763 4.14312C23.5502 4.14306 24.6158 4.29916 25.6463 4.60711ZM5.52428 11.8011L8.29104 11.9465L4.89947 15.7526L3.23615 14.0893L5.52428 11.8011ZM5.66685 27.2085C5.57971 27.2956 5.03967 27.7304 2.96076 27.7304C2.80557 27.7304 2.65928 27.7277 2.5264 27.7237C2.49023 26.4908 2.62757 25.0044 3.04508 24.5868C3.39523 24.2367 3.86074 24.0438 4.35594 24.0438C4.85069 24.0438 5.31592 24.2364 5.66595 24.586L5.66758 24.5876C6.38962 25.3105 6.3894 26.4859 5.66685 27.2085ZM4.31876 20.8488L5.24832 18.4914L11.762 25.0051L9.40457 25.9346L4.31876 20.8488ZM18.4523 24.7291L16.1641 27.0173L14.5008 25.354L18.3069 21.9624L18.4523 24.7291ZM22.41 16.0427L13.3039 24.1571L6.09637 16.9496L14.2101 7.84406C15.3958 6.51608 16.8727 5.50805 18.5014 4.88189L25.3699 11.7504C24.7499 13.3669 23.7501 14.8463 22.41 16.0427Z" fill="black" stroke="white" stroke-width="0.4"/>
<path d="M20.1695 11.275L18.9746 10.0801L18.1936 10.8611C17.7587 10.4845 17.2096 10.2784 16.6285 10.2784C15.9886 10.2784 15.3869 10.5277 14.9344 10.9802C14.4819 11.4327 14.2327 12.0343 14.2327 12.6742C14.2327 13.3142 14.4819 13.9159 14.9344 14.3684L16.1885 15.6224C16.4883 15.9222 16.4883 16.4099 16.1886 16.7096C15.8888 17.0093 15.4011 17.0093 15.1014 16.7096L12.399 14.0072L11.2041 15.2021L12.5284 16.5264L11.7523 17.3024L12.9472 18.4974L13.7233 17.7213L13.9065 17.9045C14.3858 18.3838 15.0154 18.6235 15.645 18.6235C16.2746 18.6235 16.9042 18.3838 17.3835 17.9045C18.3421 16.9459 18.3421 15.3861 17.3835 14.4275L16.1294 13.1734C15.8542 12.8982 15.8542 12.4503 16.1294 12.175C16.4047 11.8998 16.8525 11.8998 17.1278 12.175L19.2451 14.2924L20.44 13.0975L19.3936 12.051L20.1695 11.275Z" fill="black" stroke="white" stroke-width="0.4"/>
</g>
<defs>
<clipPath id="clip0_6566_165">
<rect width="30" height="30" fill="white" transform="translate(0.25)"/>
</clipPath>
</defs>
</svg>
