<svg width="31" height="32" viewBox="0 0 31 32" fill="none" xmlns="http://www.w3.org/2000/svg">
<g clip-path="url(#clip0_6566_119)">
<path d="M27.0358 2.66091C25.4518 1.96207 23.3644 1.57715 21.1581 1.57715C18.9517 1.57715 16.8643 1.96207 15.2803 2.66091C13.4765 3.45678 12.483 4.59891 12.483 5.87688V13.1599C11.6465 12.8965 10.7569 12.7542 9.83457 12.7542C4.96315 12.7542 1 16.7173 1 21.5887C1 26.4601 4.96315 30.4233 9.83457 30.4233C13.1859 30.4233 16.1073 28.5475 17.6042 25.7908C18.7116 26.0245 19.926 26.1472 21.1581 26.1472C23.3644 26.1472 25.4518 25.7624 27.0358 25.0635C28.8397 24.2677 29.8331 23.1255 29.8331 21.8476V5.87688C29.8331 4.59891 28.8397 3.45678 27.0358 2.66091ZM15.9626 4.20729C17.3363 3.60118 19.1815 3.26736 21.1581 3.26736C23.1347 3.26736 24.9798 3.60118 26.3536 4.20729C27.4573 4.69424 28.1429 5.33404 28.1429 5.87688C28.1429 6.41972 27.4573 7.05946 26.3536 7.54647C24.9798 8.15258 23.1347 8.48639 21.1581 8.48639C19.1815 8.48639 17.3363 8.15258 15.9626 7.54647C14.8589 7.05946 14.1732 6.41977 14.1732 5.87688C14.1732 5.33398 14.8589 4.69424 15.9626 4.20729ZM9.83451 28.7331C5.89508 28.7331 2.69015 25.5282 2.69015 21.5887C2.69015 17.6493 5.89508 14.4444 9.83451 14.4444C13.7739 14.4444 16.9789 17.6493 16.9789 21.5887C16.9789 25.5282 13.7739 28.7331 9.83451 28.7331ZM26.3536 23.5171C24.9798 24.1232 23.1347 24.457 21.1581 24.457C20.1605 24.457 19.1801 24.3692 18.2748 24.2011C18.4937 23.4952 18.626 22.7516 18.6599 21.9829C19.4625 22.0961 20.2984 22.1546 21.1581 22.1546C23.3645 22.1546 25.4519 21.7696 27.0359 21.0708C27.4482 20.8889 27.8176 20.6888 28.143 20.4732V21.8475C28.1429 22.3904 27.4573 23.0301 26.3536 23.5171ZM26.3536 19.5244C24.9798 20.1305 23.1347 20.4644 21.1581 20.4644C20.2587 20.4644 19.3911 20.3948 18.5691 20.2595C18.4407 19.4122 18.1911 18.6042 17.8393 17.8533C18.8787 18.0552 20.0067 18.1619 21.1581 18.1619C23.3644 18.1619 25.4518 17.777 27.0358 17.0782C27.4481 16.8963 27.8175 16.6961 28.1429 16.4805V17.8548C28.1429 18.3977 27.4573 19.0375 26.3536 19.5244ZM26.3536 15.5318C24.9798 16.1379 23.1347 16.4717 21.1581 16.4717C19.4106 16.4717 17.7425 16.2054 16.4325 15.7207C15.7868 14.9955 15.0237 14.377 14.1732 13.8955V12.4879C14.4986 12.7035 14.8681 12.9036 15.2803 13.0855C16.8643 13.7844 18.9517 14.1693 21.1581 14.1693C23.3644 14.1693 25.4518 13.7844 27.0358 13.0855C27.4481 12.9036 27.8175 12.7035 28.1429 12.4879V13.8622C28.1429 14.4051 27.4573 15.0448 26.3536 15.5318ZM26.3536 11.5391C24.9798 12.1452 23.1347 12.479 21.1581 12.479C19.1815 12.479 17.3363 12.1452 15.9626 11.5391C14.8589 11.0521 14.1732 10.4124 14.1732 9.86949V8.49518C14.4986 8.71074 14.8681 8.91092 15.2803 9.09284C16.8643 9.79169 18.9517 10.1765 21.1581 10.1765C23.3644 10.1765 25.4518 9.79169 27.0358 9.09284C27.4481 8.91092 27.8175 8.71074 28.1429 8.49518V9.86949C28.1429 10.4124 27.4573 11.0521 26.3536 11.5391Z" fill="black" stroke="white" stroke-width="0.4"/>
<path d="M10.9632 20.6793H9.1505C8.74243 20.6793 8.41042 20.3473 8.41042 19.9392C8.41042 19.5311 8.74243 19.1991 9.1505 19.1991H12.2111V17.5089H10.6799V16.3687H8.98971V17.5148C7.72442 17.598 6.72021 18.6532 6.72021 19.9392C6.72021 21.2793 7.81045 22.3695 9.1505 22.3695H10.9632C11.4067 22.3695 11.7674 22.7303 11.7674 23.1738C11.7674 23.6172 11.4067 23.978 10.9632 23.978H7.05702V25.6682H8.98971V26.8084H10.6799V25.6682H10.9632C12.3387 25.6682 13.4577 24.5492 13.4577 23.1738C13.4577 21.7983 12.3387 20.6793 10.9632 20.6793Z" fill="black" stroke="white" stroke-width="0.4"/>
</g>
<defs>
<clipPath id="clip0_6566_119">
<rect width="30.8331" height="30.8462" fill="white" transform="translate(0 0.577148)"/>
</clipPath>
</defs>
</svg>
