<svg width="30" height="30" viewBox="0 0 30 30" fill="none" xmlns="http://www.w3.org/2000/svg">
<path d="M25.7995 7.29849V3.98096H0.882324V22.7012H3.92468V26.0188H29.1176V7.29849H25.7995ZM2.53674 5.63537H24.1451V7.27621H2.53674V5.63537ZM2.53674 8.93063H24.1451V10.585H2.53674V8.93063ZM2.53674 21.0469V12.2394H24.1451V21.0469H2.53674ZM27.4632 24.3644H5.57909V22.7013H25.7995V8.95291H27.4632V24.3644Z" fill="black" stroke="white" stroke-width="0.4"/>
<path d="M14.9922 17.4868L14.9988 15.8324L21.9521 15.8602L21.9455 17.5146L14.9922 17.4868Z" fill="black" stroke="white" stroke-width="0.4"/>
<path d="M4.79199 15.8315H6.4464V17.486H4.79199V15.8315Z" fill="black" stroke="white" stroke-width="0.4"/>
<path d="M8.10107 15.8315H9.75549V17.486H8.10107V15.8315Z" fill="black" stroke="white" stroke-width="0.4"/>
</svg>
