<svg width="31" height="30" viewBox="0 0 31 30" fill="none" xmlns="http://www.w3.org/2000/svg">
<path fill-rule="evenodd" clip-rule="evenodd" d="M1.33057 10.7884C1.33057 11.995 2.02235 13.0424 3.02964 13.5569V29.4232H28.4705V13.557C29.4778 13.0424 30.1696 11.9951 30.1696 10.7884V0.577148H1.33057V10.7884ZM26.7806 13.8824V23.2267H21.1199V17.7577H10.3803V23.2267H4.71954V13.8824C5.49774 13.8122 6.19364 13.4539 6.70038 12.9152C7.26751 13.5182 8.07168 13.8958 8.96282 13.8958C9.85395 13.8958 10.6581 13.5182 11.2252 12.9152C11.7924 13.5182 12.5965 13.8958 13.4877 13.8958C14.3788 13.8958 15.183 13.5182 15.7501 12.9152C16.3172 13.5182 17.1214 13.8958 18.0126 13.8958C18.9037 13.8958 19.7079 13.5182 20.275 12.9152C20.8421 13.5182 21.6463 13.8958 22.5374 13.8958C23.4286 13.8958 24.2327 13.5182 24.7999 12.9152C25.3065 13.4539 26.0024 13.8121 26.7806 13.8824ZM19.43 27.7334H12.0702V19.4476H19.43V27.7334ZM4.71954 24.9166H10.3803V27.7334H4.71954V24.9166ZM21.1199 27.7334V24.9166H26.7806V27.7334H21.1199ZM3.02046 2.26705H5.85538V6.92288V8.61278V10.7884C5.85538 11.57 5.21953 12.2059 4.43789 12.2059C3.65626 12.2059 3.02041 11.57 3.02041 10.7884L3.02046 8.61278V6.92288V2.26705ZM7.54527 2.26705V6.92288V8.61278V10.7884C7.54527 11.57 8.18118 12.2059 8.96276 12.2059C9.74434 12.2059 10.3802 11.57 10.3802 10.7884V8.61278L10.3803 6.92288L10.3802 2.26705H7.54527ZM14.9052 10.7884C14.9052 11.57 14.2693 12.2059 13.4877 12.2059C12.7061 12.2059 12.0702 11.57 12.0702 10.7884V8.61278L12.0701 6.92288V2.26705H14.9051V6.92288L14.9052 8.61278V10.7884ZM19.43 10.7884V8.61278V6.92288V2.26705H16.595V6.92288L16.5951 8.61278V10.7884C16.5951 11.57 17.2309 12.2059 18.0125 12.2059C18.7941 12.2059 19.43 11.57 19.43 10.7884ZM21.1199 2.26705H23.9548V6.92288V8.61278V10.7884C23.9548 11.57 23.319 12.2059 22.5374 12.2059C21.7557 12.2059 21.1199 11.57 21.1199 10.7884V8.61278V6.92288V2.26705ZM28.4797 2.26705H25.6447V6.92288V8.61278V10.7884C25.6447 11.57 26.2806 12.2059 27.0622 12.2059C27.8439 12.2059 28.4797 11.57 28.4797 10.7884V8.61278V6.92288V2.26705Z" fill="black" stroke="white" stroke-width="0.4"/>
</svg>
