<svg width="31" height="30" viewBox="0 0 31 30" fill="none" xmlns="http://www.w3.org/2000/svg">
<path d="M23.6884 0.577148H7.31152V24.4272H9.36105V29.4233H21.6388V24.4272H23.6884V0.577148ZM21.9981 2.26744V19.5815H9.00181V2.26744H21.9981ZM11.0514 24.4272H12.5514V27.733H11.0514V24.4272ZM19.9485 27.733H14.2416V24.4272H19.9485V27.733ZM9.00181 22.7369V21.2718H21.9981V22.7369H9.00181Z" fill="black" stroke="white" stroke-width="0.4"/>
<path d="M20.3076 3.84521H10.6924V9.32754H20.3076V3.84521ZM18.6174 7.63726H12.3827V5.5355H18.6174V7.63726Z" fill="black" stroke="white" stroke-width="0.4"/>
<path d="M14.6548 10.7358H16.3452V12.4261H14.6548V10.7358Z" fill="black" stroke="white" stroke-width="0.4"/>
<path d="M17.4722 10.7358H19.1626V12.4261H17.4722V10.7358Z" fill="black" stroke="white" stroke-width="0.4"/>
<path d="M11.8374 10.7358H13.5277V12.4261H11.8374V10.7358Z" fill="black" stroke="white" stroke-width="0.4"/>
<path d="M14.6548 13.5532H16.3452V15.2435H14.6548V13.5532Z" fill="black" stroke="white" stroke-width="0.4"/>
<path d="M17.4722 13.5532H19.1626V15.2435H17.4722V13.5532Z" fill="black" stroke="white" stroke-width="0.4"/>
<path d="M11.8374 13.5532H13.5277V15.2435H11.8374V13.5532Z" fill="black" stroke="white" stroke-width="0.4"/>
<path d="M14.6548 16.3706H16.3452V18.0609H14.6548V16.3706Z" fill="black" stroke="white" stroke-width="0.4"/>
<path d="M17.4722 16.3706H19.1626V18.0609H17.4722V16.3706Z" fill="black" stroke="white" stroke-width="0.4"/>
<path d="M11.8374 16.3706H13.5277V18.0609H11.8374V16.3706Z" fill="black" stroke="white" stroke-width="0.4"/>
</svg>
