<svg width="20" height="20" viewBox="0 0 20 20" fill="none" xmlns="http://www.w3.org/2000/svg">
<path fill-rule="evenodd" clip-rule="evenodd" d="M9.57149 1.78575C9.83539 1.62741 10.1651 1.62741 10.429 1.78575L18.7623 6.78575C19.0835 6.97846 19.2367 7.36179 19.1367 7.72277C19.0367 8.08375 18.7081 8.33366 18.3336 8.33366H17.0836V16.667H18.3336C18.7938 16.667 19.1669 17.0401 19.1669 17.5003C19.1669 17.9606 18.7938 18.3337 18.3336 18.3337H1.6669C1.20667 18.3337 0.833569 17.9606 0.833569 17.5003C0.833569 17.0401 1.20667 16.667 1.6669 16.667H2.9169V8.33366H1.6669C1.29233 8.33366 0.963791 8.08375 0.863807 7.72277C0.763822 7.36179 0.916967 6.97846 1.23816 6.78575L9.57149 1.78575ZM4.58357 8.33366V16.667H7.08357V8.33366H4.58357ZM8.75024 8.33366V16.667H11.2502V8.33366H8.75024ZM4.6755 6.66699L10.0002 3.47215L15.325 6.66699H4.6755ZM12.9169 8.33366V16.667H15.4169V8.33366H12.9169Z" fill="black" stroke="white" stroke-width="0.3" stroke-linecap="round" stroke-linejoin="round"/>
</svg>
