<svg width="20" height="20" viewBox="0 0 20 20" fill="none" xmlns="http://www.w3.org/2000/svg">
<path fill-rule="evenodd" clip-rule="evenodd" d="M9.77014 0.833175C9.92268 0.788661 10.0848 0.788682 10.2373 0.833235L17.5807 2.97839C17.9361 3.08221 18.1804 3.40806 18.1804 3.7783V8.17751C18.1804 13.1601 14.9917 17.5836 10.2646 19.1586C10.0936 19.2156 9.90878 19.2156 9.7378 19.1587C5.00947 17.5836 1.81982 13.1592 1.81982 8.17546V3.7783C1.81982 3.40798 2.0642 3.08208 2.4197 2.97833L9.77014 0.833175ZM3.48649 4.40319V8.17546C3.48649 12.3485 6.09892 16.0634 10.0011 17.4856C13.9022 16.0634 16.5137 12.3494 16.5137 8.17751V4.40303L10.0035 2.50127L3.48649 4.40319ZM14.671 6.75817C14.9964 7.0836 14.9964 7.61124 14.671 7.93668L9.77303 12.8346C9.61675 12.9909 9.40478 13.0787 9.18377 13.0787C8.96276 13.0787 8.75079 12.9909 8.59451 12.8346L5.73737 9.9775C5.41193 9.65206 5.41193 9.12442 5.73737 8.79898C6.06281 8.47355 6.59045 8.47355 6.91588 8.79898L9.18377 11.0669L13.4925 6.75817C13.8179 6.43273 14.3455 6.43273 14.671 6.75817Z" fill="black" stroke="white" stroke-width="0.3" stroke-linecap="round" stroke-linejoin="round"/>
</svg>
