<svg width="32" height="32" viewBox="0 0 32 32" fill="none" xmlns="http://www.w3.org/2000/svg">
<g clip-path="url(#clip0_6566_336)">
<path d="M16 1C7.74011 1 1 7.74126 1 16C1 24.2599 7.74126 31 16 31C24.2599 31 31 24.2587 31 16C31 7.74011 24.2587 1 16 1ZM16 29.2422C8.69821 29.2422 2.75781 23.3018 2.75781 16C2.75781 8.69821 8.69821 2.75781 16 2.75781C23.3018 2.75781 29.2422 8.69821 29.2422 16C29.2422 23.3018 23.3018 29.2422 16 29.2422Z" fill="black" stroke="white" stroke-width="0.4"/>
<path d="M19.167 11.6411L16.0002 5.22461L12.8334 11.6411L5.75244 12.6701L10.8764 17.6646L9.66678 24.7169L16.0002 21.3871L22.3336 24.7169L21.1239 17.6646L26.2477 12.6701L19.167 11.6411ZM19.999 21.5036L16.0002 19.4013L12.0014 21.5036L12.7652 17.0507L9.52991 13.8974L14.0009 13.2478L16.0002 9.19662L17.9995 13.2478L22.4704 13.8974L19.2352 17.0507L19.999 21.5036Z" fill="black" stroke="white" stroke-width="0.4"/>
</g>
<defs>
<clipPath id="clip0_6566_336">
<rect width="32" height="32" fill="white"/>
</clipPath>
</defs>
</svg>
