<svg width="19" height="20" viewBox="0 0 19 20" fill="none" xmlns="http://www.w3.org/2000/svg">
<path fill-rule="evenodd" clip-rule="evenodd" d="M9.4571 0.833008C9.877 0.833008 10.2174 1.2061 10.2174 1.66634V2.49967H14.7793C14.9809 2.49967 15.1743 2.58747 15.3169 2.74375L16.8375 4.41042C17.1344 4.73586 17.1344 5.26349 16.8375 5.58893L15.3169 7.2556C15.1743 7.41188 14.9809 7.49967 14.7793 7.49967H10.2174V8.74967H14.7793C15.1992 8.74967 15.5396 9.12277 15.5396 9.58301V12.9163C15.5396 13.3766 15.1992 13.7497 14.7793 13.7497H10.2174V17.4997H11.3579C11.7778 17.4997 12.1182 17.8728 12.1182 18.333C12.1182 18.7932 11.7778 19.1663 11.3579 19.1663H7.55632C7.13642 19.1663 6.79601 18.7932 6.79601 18.333C6.79601 17.8728 7.13642 17.4997 7.55632 17.4997H8.69679V13.7497H4.13493C3.93329 13.7497 3.7399 13.6619 3.59731 13.5056L2.07669 11.8389C1.77977 11.5135 1.77977 10.9859 2.07669 10.6604L3.59731 8.99375C3.7399 8.83747 3.93329 8.74967 4.13493 8.74967H8.69679V7.49967H4.13493C3.71502 7.49967 3.37462 7.12658 3.37462 6.66634V3.33301C3.37462 2.87277 3.71502 2.49967 4.13493 2.49967H8.69679V1.66634C8.69679 1.2061 9.03719 0.833008 9.4571 0.833008ZM4.89524 4.16634V5.83301H14.4643L15.2246 4.99967L14.4643 4.16634H4.89524ZM4.44986 10.4163L3.68955 11.2497L4.44986 12.083H14.019V10.4163H4.44986Z" fill="black" stroke="black" stroke-width="0.4" stroke-linecap="round" stroke-linejoin="round"/>
</svg>
