<svg width="19" height="18" viewBox="0 0 19 18" fill="none" xmlns="http://www.w3.org/2000/svg">
<g clip-path="url(#clip0_6566_66)">
<path d="M8.25165 14.8246C4.16449 14.8246 0.839355 11.4995 0.839355 7.41229C0.839355 3.32513 4.16449 0 8.25165 0C12.3388 0 15.6639 3.32513 15.6639 7.41229C15.6639 11.4995 12.3388 14.8246 8.25165 14.8246ZM8.25165 1.40517C4.9393 1.40517 2.24453 4.09995 2.24453 7.41229C2.24453 10.7246 4.9393 13.4194 8.25165 13.4194C11.564 13.4194 14.2588 10.7246 14.2588 7.41229C14.2588 4.09995 11.564 1.40517 8.25165 1.40517ZM18.6198 17.7942C18.8942 17.5198 18.8942 17.0749 18.6198 16.8006L15.4758 13.6565C15.2014 13.3821 14.7565 13.3821 14.4821 13.6565C14.2078 13.9309 14.2078 14.3758 14.4821 14.6501L17.6262 17.7942C17.7634 17.9314 17.9432 18 18.123 18C18.3029 18 18.4826 17.9314 18.6198 17.7942Z" fill="black"/>
</g>
<defs>
<clipPath id="clip0_6566_66">
<rect width="18" height="18" fill="white" transform="translate(0.833008)"/>
</clipPath>
</defs>
</svg>
