<svg width="27" height="37" viewBox="0 0 27 37" fill="none" xmlns="http://www.w3.org/2000/svg">
<path opacity="0.5" d="M0.697851 17.2698L26.2683 0.0833597C26.3351 0.0380932 26.4154 0.00996216 26.5 0.00219678C26.5845 -0.00556861 26.6699 0.00734673 26.7463 0.0394598C26.8227 0.0715729 26.8871 0.121581 26.9319 0.183741C26.9768 0.245902 27.0004 0.317693 27 0.39087V4.16397C27 4.40314 26.8695 4.63256 26.654 4.77899L6.23395 18.4998L26.654 32.2206C26.8752 32.367 27 32.5964 27 32.8356V36.6087C27 36.9358 26.5632 37.1164 26.2683 36.9162L0.697851 19.7298C0.480518 19.584 0.304705 19.3973 0.183779 19.1842C0.0628548 18.9711 0 18.737 0 18.4998C0 18.2626 0.0628548 18.0285 0.183779 17.8154C0.304705 17.6022 0.480518 17.4156 0.697851 17.2698Z" fill="#333333"/>
</svg>
