<svg width="27" height="37" viewBox="0 0 27 37" fill="none" xmlns="http://www.w3.org/2000/svg">
<path d="M26.3021 19.7302L0.731723 36.9166C0.664906 36.9619 0.584607 36.99 0.500049 36.9978C0.415491 37.0056 0.330102 36.9927 0.253689 36.9605C0.177276 36.9284 0.112939 36.8784 0.0680656 36.8163C0.0231919 36.7541 -0.00039826 36.6823 5.08701e-06 36.6091L5.08701e-06 32.836C5.08701e-06 32.5969 0.130467 32.3674 0.346012 32.221L20.766 18.5002L0.346012 4.7794C0.124795 4.63296 5.08701e-06 4.40355 5.08701e-06 4.16438L5.08701e-06 0.391277C5.08701e-06 0.0642433 0.436767 -0.11636 0.731723 0.0837669L26.3021 17.2702C26.5195 17.416 26.6953 17.6027 26.8162 17.8158C26.9371 18.0289 27 18.263 27 18.5002C27 18.7374 26.9371 18.9715 26.8162 19.1846C26.6953 19.3978 26.5195 19.5844 26.3021 19.7302Z" fill="white"/>
</svg>
