<svg width="20" height="20" viewBox="0 0 20 20" fill="none" xmlns="http://www.w3.org/2000/svg">
<path fill-rule="evenodd" clip-rule="evenodd" d="M0.833496 2.08333C0.833496 1.6231 1.20659 1.25 1.66683 1.25H18.3335C18.7937 1.25 19.1668 1.6231 19.1668 2.08333C19.1668 2.54357 18.7937 2.91667 18.3335 2.91667H1.66683C1.20659 2.91667 0.833496 2.54357 0.833496 2.08333ZM3.3335 4.16667C3.79373 4.16667 4.16683 4.53976 4.16683 5V5.41667C4.16683 5.8769 3.79373 6.25 3.3335 6.25C2.87326 6.25 2.50016 5.8769 2.50016 5.41667V5C2.50016 4.53976 2.87326 4.16667 3.3335 4.16667ZM9.5835 4.16667C10.0437 4.16667 10.4168 4.53976 10.4168 5V5.41667C10.4168 5.8769 10.0437 6.25 9.5835 6.25C9.12326 6.25 8.75016 5.8769 8.75016 5.41667V5C8.75016 4.53976 9.12326 4.16667 9.5835 4.16667ZM14.1668 5C14.1668 4.53976 14.5399 4.16667 15.0002 4.16667H18.3335C18.7937 4.16667 19.1668 4.53976 19.1668 5V8.33333C19.1668 8.79357 18.7937 9.16667 18.3335 9.16667H17.5002V17.0833H18.3335C18.7937 17.0833 19.1668 17.4564 19.1668 17.9167C19.1668 18.3769 18.7937 18.75 18.3335 18.75H1.66683C1.20659 18.75 0.833496 18.3769 0.833496 17.9167C0.833496 17.4564 1.20659 17.0833 1.66683 17.0833H2.50016V15.8333H1.66683C1.20659 15.8333 0.833496 15.4602 0.833496 15V11.6667C0.833496 11.2064 1.20659 10.8333 1.66683 10.8333H5.00016C5.4604 10.8333 5.8335 11.2064 5.8335 11.6667V15C5.8335 15.4602 5.4604 15.8333 5.00016 15.8333H4.16683V17.0833H9.16683V12.5H8.3335C7.87326 12.5 7.50016 12.1269 7.50016 11.6667V8.33333C7.50016 7.8731 7.87326 7.5 8.3335 7.5H11.6668C12.1271 7.5 12.5002 7.8731 12.5002 8.33333V11.6667C12.5002 12.1269 12.1271 12.5 11.6668 12.5H10.8335V17.0833H15.8335V9.16667H15.0002C14.5399 9.16667 14.1668 8.79357 14.1668 8.33333V5ZM17.5002 7.5H15.8335V5.83333H17.5002V7.5ZM10.8335 10.8333V9.16667H9.16683V10.8333H10.8335ZM4.16683 14.1667V12.5H2.50016V14.1667H4.16683ZM3.3335 7.5C3.79373 7.5 4.16683 7.8731 4.16683 8.33333V8.75C4.16683 9.21024 3.79373 9.58333 3.3335 9.58333C2.87326 9.58333 2.50016 9.21024 2.50016 8.75V8.33333C2.50016 7.8731 2.87326 7.5 3.3335 7.5Z" fill="black" stroke="white" stroke-width="0.3" stroke-linecap="round"/>
</svg>
