<svg width="19" height="20" viewBox="0 0 19 20" fill="none" xmlns="http://www.w3.org/2000/svg">
<path fill-rule="evenodd" clip-rule="evenodd" d="M1.52051 2.50033C1.52051 2.04009 1.86091 1.66699 2.28082 1.66699H7.60298C8.02289 1.66699 8.36329 2.04009 8.36329 2.50033V7.08366C8.36329 7.5439 8.02289 7.91699 7.60298 7.91699H2.28082C1.86091 7.91699 1.52051 7.5439 1.52051 7.08366V2.50033ZM3.04113 3.33366V6.25033H6.84267V3.33366H3.04113ZM9.88391 2.50033C9.88391 2.04009 10.2243 1.66699 10.6442 1.66699H15.9664C16.3863 1.66699 16.7267 2.04009 16.7267 2.50033V9.58366C16.7267 10.0439 16.3863 10.417 15.9664 10.417H10.6442C10.2243 10.417 9.88391 10.0439 9.88391 9.58366V2.50033ZM11.4045 3.33366V8.75033H15.2061V3.33366H11.4045ZM1.52051 10.417C1.52051 9.95675 1.86091 9.58366 2.28082 9.58366H7.60298C8.02289 9.58366 8.36329 9.95675 8.36329 10.417V17.5003C8.36329 17.9606 8.02289 18.3337 7.60298 18.3337H2.28082C1.86091 18.3337 1.52051 17.9606 1.52051 17.5003V10.417ZM3.04113 11.2503V16.667H6.84267V11.2503H3.04113ZM9.88391 12.917C9.88391 12.4568 10.2243 12.0837 10.6442 12.0837H15.9664C16.3863 12.0837 16.7267 12.4568 16.7267 12.917V17.5003C16.7267 17.9606 16.3863 18.3337 15.9664 18.3337H10.6442C10.2243 18.3337 9.88391 17.9606 9.88391 17.5003V12.917ZM11.4045 13.7503V16.667H15.2061V13.7503H11.4045Z" fill="black" stroke="black" stroke-width="0.4" stroke-linejoin="round"/>
</svg>
